{
    "asset" : {
        "generator" : "Khronos glTF Blender I/O v3.4.50",
        "version" : "2.0"
    },
    "scene" : 0,
    "scenes" : [
        {
            "name" : "Scene",
            "nodes" : [
                0
            ]
        }
    ],
    "nodes" : [
        {
            "mesh" : 0,
            "name" : "Liver.006",
            "scale" : [
                0.4170149564743042,
                0.4170149564743042,
                0.4170149564743042
            ],
            "translation" : [
                -0.9744768142700195,
                0.1751653403043747,
                -0.16802310943603516
            ]
        }
    ],
    "materials" : [
        {
            "doubleSided" : true,
            "emissiveTexture" : {
                "index" : 0
            },
            "name" : "Organ",
            "pbrMetallicRoughness" : {
                "baseColorTexture" : {
                    "index" : 1
                },
                "metallicRoughnessTexture" : {
                    "index" : 2
                }
            }
        },
        {
            "doubleSided" : true,
            "name" : "Ligament",
            "pbrMetallicRoughness" : {
                "baseColorFactor" : [
                    0.32649141550064087,
                    0.28287187218666077,
                    0.12563735246658325,
                    1
                ],
                "metallicFactor" : 0
            }
        },
        {
            "doubleSided" : true,
            "emissiveFactor" : [
                1,
                0.9957044124603271,
                0.9828822016716003
            ],
            "name" : "Material",
            "pbrMetallicRoughness" : {
                "baseColorFactor" : [
                    0,
                    0,
                    0,
                    1
                ]
            }
        }
    ],
    "meshes" : [
        {
            "name" : "Mesh.005",
            "primitives" : [
                {
                    "attributes" : {
                        "POSITION" : 0,
                        "TEXCOORD_0" : 1,
                        "NORMAL" : 2
                    },
                    "indices" : 3,
                    "material" : 0
                },
                {
                    "attributes" : {
                        "POSITION" : 4,
                        "TEXCOORD_0" : 5,
                        "NORMAL" : 6
                    },
                    "indices" : 7,
                    "material" : 1
                },
                {
                    "attributes" : {
                        "POSITION" : 8,
                        "TEXCOORD_0" : 9,
                        "NORMAL" : 10
                    },
                    "indices" : 11,
                    "material" : 2
                }
            ]
        }
    ],
    "textures" : [
        {
            "sampler" : 0,
            "source" : 0
        },
        {
            "sampler" : 0,
            "source" : 0
        },
        {
            "sampler" : 0,
            "source" : 1
        }
    ],
    "images" : [
        {
            "bufferView" : 4,
            "mimeType" : "image/png",
            "name" : "Liver_Base"
        },
        {
            "bufferView" : 5,
            "mimeType" : "image/png",
            "name" : "Liver_Rough_Metall"
        }
    ],
    "accessors" : [
        {
            "bufferView" : 0,
            "componentType" : 5126,
            "count" : 2221,
            "max" : [
                0.48371201753616333,
                0.16342224180698395,
                0.3608884811401367
            ],
            "min" : [
                -0.4839448928833008,
                -0.6192994117736816,
                -0.361224889755249
            ],
            "type" : "VEC3"
        },
        {
            "bufferView" : 1,
            "componentType" : 5126,
            "count" : 2221,
            "type" : "VEC2"
        },
        {
            "bufferView" : 2,
            "componentType" : 5126,
            "count" : 2221,
            "type" : "VEC3"
        },
        {
            "bufferView" : 3,
            "componentType" : 5123,
            "count" : 8382,
            "type" : "SCALAR"
        },
        {
            "bufferView" : 6,
            "componentType" : 5126,
            "count" : 208,
            "max" : [
                0.4854421019554138,
                0.16342224180698395,
                0.3608884811401367
            ],
            "min" : [
                -0.30812329053878784,
                -0.30348753929138184,
                -0.3463735580444336
            ],
            "type" : "VEC3"
        },
        {
            "bufferView" : 7,
            "componentType" : 5126,
            "count" : 208,
            "type" : "VEC2"
        },
        {
            "bufferView" : 8,
            "componentType" : 5126,
            "count" : 208,
            "type" : "VEC3"
        },
        {
            "bufferView" : 9,
            "componentType" : 5123,
            "count" : 624,
            "type" : "SCALAR"
        },
        {
            "bufferView" : 10,
            "componentType" : 5126,
            "count" : 1158,
            "max" : [
                0.18136872351169586,
                0.6195701360702515,
                0.11796236038208008
            ],
            "min" : [
                -0.22727562487125397,
                0.4867626130580902,
                0.09771919250488281
            ],
            "type" : "VEC3"
        },
        {
            "bufferView" : 11,
            "componentType" : 5126,
            "count" : 1158,
            "type" : "VEC2"
        },
        {
            "bufferView" : 12,
            "componentType" : 5126,
            "count" : 1158,
            "type" : "VEC3"
        },
        {
            "bufferView" : 13,
            "componentType" : 5123,
            "count" : 3258,
            "type" : "SCALAR"
        }
    ],
    "bufferViews" : [
        {
            "buffer" : 0,
            "byteLength" : 26652,
            "byteOffset" : 0,
            "target" : 34962
        },
        {
            "buffer" : 0,
            "byteLength" : 17768,
            "byteOffset" : 26652,
            "target" : 34962
        },
        {
            "buffer" : 0,
            "byteLength" : 26652,
            "byteOffset" : 44420,
            "target" : 34962
        },
        {
            "buffer" : 0,
            "byteLength" : 16764,
            "byteOffset" : 71072,
            "target" : 34963
        },
        {
            "buffer" : 0,
            "byteLength" : 231788,
            "byteOffset" : 87836
        },
        {
            "buffer" : 0,
            "byteLength" : 126391,
            "byteOffset" : 319624
        },
        {
            "buffer" : 0,
            "byteLength" : 2496,
            "byteOffset" : 446016,
            "target" : 34962
        },
        {
            "buffer" : 0,
            "byteLength" : 1664,
            "byteOffset" : 448512,
            "target" : 34962
        },
        {
            "buffer" : 0,
            "byteLength" : 2496,
            "byteOffset" : 450176,
            "target" : 34962
        },
        {
            "buffer" : 0,
            "byteLength" : 1248,
            "byteOffset" : 452672,
            "target" : 34963
        },
        {
            "buffer" : 0,
            "byteLength" : 13896,
            "byteOffset" : 453920,
            "target" : 34962
        },
        {
            "buffer" : 0,
            "byteLength" : 9264,
            "byteOffset" : 467816,
            "target" : 34962
        },
        {
            "buffer" : 0,
            "byteLength" : 13896,
            "byteOffset" : 477080,
            "target" : 34962
        },
        {
            "buffer" : 0,
            "byteLength" : 6516,
            "byteOffset" : 490976,
            "target" : 34963
        }
    ],
    "samplers" : [
        {
            "magFilter" : 9729,
            "minFilter" : 9987
        }
    ],
    "buffers" : [
        {
            "byteLength" : 497492,
            "uri" : "data:application/octet-stream;base64,"
        }
    ]
}
