{
    "asset" : {
        "generator" : "Khronos glTF Blender I/O v3.4.50",
        "version" : "2.0"
    },
    "scene" : 0,
    "scenes" : [
        {
            "name" : "Scene",
            "nodes" : [
                0,
                1,
                2,
                3,
                4,
                5,
                6
            ]
        }
    ],
    "nodes" : [
        {
            "mesh" : 0,
            "name" : "Liver",
            "rotation" : [
                0,
                0.00911607127636671,
                0,
                0.9999584555625916
            ],
            "scale" : [
                2.481646776199341,
                2.360783576965332,
                2.481646776199341
            ]
        },
        {
            "mesh" : 1,
            "name" : "Text",
            "rotation" : [
                0.5,
                0.5,
                -0.5,
                0.5
            ],
            "scale" : [
                0.15788424015045166,
                0.15788424015045166,
                0.15788424015045166
            ],
            "translation" : [
                0,
                0.792766809463501,
                1.1133437156677246
            ]
        },
        {
            "mesh" : 2,
            "name" : "Text.001",
            "rotation" : [
                0.5,
                0.5,
                -0.5,
                0.5
            ],
            "scale" : [
                0.15788424015045166,
                0.15788424015045166,
                0.15788424015045166
            ],
            "translation" : [
                0,
                0.8689678907394409,
                -1.4518420696258545
            ]
        },
        {
            "mesh" : 3,
            "name" : "Text.002",
            "rotation" : [
                0.5,
                0.5,
                -0.5,
                0.5
            ],
            "scale" : [
                0.10137612372636795,
                0.10137612372636795,
                0.10137612372636795
            ],
            "translation" : [
                -0.04756331443786621,
                1.2976499795913696,
                -0.3346463739871979
            ]
        },
        {
            "mesh" : 4,
            "name" : "Line",
            "rotation" : [
                0,
                0,
                -0.098415307700634,
                0.9951454401016235
            ],
            "scale" : [
                0.45442450046539307,
                0.45442450046539307,
                0.45442450046539307
            ],
            "translation" : [
                -0.019849322736263275,
                0.527043342590332,
                -1.1501929759979248
            ]
        },
        {
            "mesh" : 5,
            "name" : "Line.001",
            "rotation" : [
                0.546302855014801,
                0.05402686074376106,
                -0.08225977420806885,
                0.8317857980728149
            ],
            "scale" : [
                0.45442450046539307,
                0.45442450046539307,
                0.4544244706630707
            ],
            "translation" : [
                -0.019849322736263275,
                0.47668546438217163,
                1.0831794738769531
            ]
        },
        {
            "mesh" : 6,
            "name" : "Line.002",
            "rotation" : [
                0.16859902441501617,
                -0.121727354824543,
                -0.04295136407017708,
                0.9771959781646729
            ],
            "scale" : [
                0.3756166100502014,
                1.057713508605957,
                0.6433920860290527
            ],
            "translation" : [
                -0.034454233944416046,
                0.8468160033226013,
                -0.3523837625980377
            ]
        }
    ],
    "materials" : [
        {
            "doubleSided" : true,
            "name" : "Organ.001",
            "pbrMetallicRoughness" : {
                "baseColorTexture" : {
                    "index" : 0
                },
                "metallicFactor" : 0,
                "roughnessFactor" : 0.46909093856811523
            }
        },
        {
            "doubleSided" : true,
            "name" : "Ligament",
            "pbrMetallicRoughness" : {
                "baseColorFactor" : [
                    0.19711872935295105,
                    0.05740802362561226,
                    0.01272270642220974,
                    1
                ],
                "metallicFactor" : 0,
                "roughnessFactor" : 0.6545454263687134
            }
        },
        {
            "doubleSided" : true,
            "emissiveFactor" : [
                1,
                1,
                1
            ],
            "name" : "Material.001",
            "pbrMetallicRoughness" : {
                "baseColorFactor" : [
                    0,
                    0,
                    0,
                    1
                ]
            }
        }
    ],
    "meshes" : [
        {
            "name" : "Mesh.001",
            "primitives" : [
                {
                    "attributes" : {
                        "POSITION" : 0,
                        "TEXCOORD_0" : 1,
                        "NORMAL" : 2
                    },
                    "indices" : 3,
                    "material" : 0
                },
                {
                    "attributes" : {
                        "POSITION" : 4,
                        "TEXCOORD_0" : 5,
                        "NORMAL" : 6
                    },
                    "indices" : 7,
                    "material" : 1
                }
            ]
        },
        {
            "name" : "Text",
            "primitives" : [
                {
                    "attributes" : {
                        "POSITION" : 8,
                        "TEXCOORD_0" : 9,
                        "NORMAL" : 10
                    },
                    "indices" : 11,
                    "material" : 2
                }
            ]
        },
        {
            "name" : "Text.001",
            "primitives" : [
                {
                    "attributes" : {
                        "POSITION" : 12,
                        "TEXCOORD_0" : 13,
                        "NORMAL" : 14
                    },
                    "indices" : 15,
                    "material" : 2
                }
            ]
        },
        {
            "name" : "Text.002",
            "primitives" : [
                {
                    "attributes" : {
                        "POSITION" : 16,
                        "TEXCOORD_0" : 17,
                        "NORMAL" : 18
                    },
                    "indices" : 19,
                    "material" : 2
                }
            ]
        },
        {
            "name" : "Line",
            "primitives" : [
                {
                    "attributes" : {
                        "POSITION" : 20,
                        "TEXCOORD_0" : 21,
                        "NORMAL" : 22
                    },
                    "indices" : 23,
                    "material" : 2
                }
            ]
        },
        {
            "name" : "Line.001",
            "primitives" : [
                {
                    "attributes" : {
                        "POSITION" : 24,
                        "TEXCOORD_0" : 25,
                        "NORMAL" : 26
                    },
                    "indices" : 23,
                    "material" : 2
                }
            ]
        },
        {
            "name" : "Line.002",
            "primitives" : [
                {
                    "attributes" : {
                        "POSITION" : 27,
                        "TEXCOORD_0" : 28,
                        "NORMAL" : 29
                    },
                    "indices" : 23,
                    "material" : 2
                }
            ]
        }
    ],
    "textures" : [
        {
            "sampler" : 0,
            "source" : 0
        }
    ],
    "images" : [
        {
            "bufferView" : 4,
            "mimeType" : "image/png",
            "name" : "Liver-2"
        }
    ],
    "accessors" : [
        {
            "bufferView" : 0,
            "componentType" : 5126,
            "count" : 6942,
            "max" : [
                0.26539868116378784,
                0.3170510530471802,
                0.43748921155929565
            ],
            "min" : [
                -0.3658834397792816,
                -0.42307496070861816,
                -0.4955502152442932
            ],
            "type" : "VEC3"
        },
        {
            "bufferView" : 1,
            "componentType" : 5126,
            "count" : 6942,
            "type" : "VEC2"
        },
        {
            "bufferView" : 2,
            "componentType" : 5126,
            "count" : 6942,
            "type" : "VEC3"
        },
        {
            "bufferView" : 3,
            "componentType" : 5123,
            "count" : 34350,
            "type" : "SCALAR"
        },
        {
            "bufferView" : 5,
            "componentType" : 5126,
            "count" : 577,
            "max" : [
                0.23029391467571259,
                0.31666192412376404,
                0.32022976875305176
            ],
            "min" : [
                -0.3542560636997223,
                -0.12471672147512436,
                -0.4932979345321655
            ],
            "type" : "VEC3"
        },
        {
            "bufferView" : 6,
            "componentType" : 5126,
            "count" : 577,
            "type" : "VEC2"
        },
        {
            "bufferView" : 7,
            "componentType" : 5126,
            "count" : 577,
            "type" : "VEC3"
        },
        {
            "bufferView" : 8,
            "componentType" : 5123,
            "count" : 2460,
            "type" : "SCALAR"
        },
        {
            "bufferView" : 9,
            "componentType" : 5126,
            "count" : 1076,
            "max" : [
                -0.13100016117095947,
                0,
                1.2350000143051147
            ],
            "min" : [
                -2.139000415802002,
                0,
                -0.45600003004074097
            ],
            "type" : "VEC3"
        },
        {
            "bufferView" : 10,
            "componentType" : 5126,
            "count" : 1076,
            "type" : "VEC2"
        },
        {
            "bufferView" : 11,
            "componentType" : 5126,
            "count" : 1076,
            "type" : "VEC3"
        },
        {
            "bufferView" : 12,
            "componentType" : 5123,
            "count" : 2430,
            "type" : "SCALAR"
        },
        {
            "bufferView" : 13,
            "componentType" : 5126,
            "count" : 701,
            "max" : [
                0.04199996590614319,
                0,
                1.3502036333084106
            ],
            "min" : [
                -1.8720000982284546,
                0,
                -0.3502037525177002
            ],
            "type" : "VEC3"
        },
        {
            "bufferView" : 14,
            "componentType" : 5126,
            "count" : 701,
            "type" : "VEC2"
        },
        {
            "bufferView" : 15,
            "componentType" : 5126,
            "count" : 701,
            "type" : "VEC3"
        },
        {
            "bufferView" : 16,
            "componentType" : 5123,
            "count" : 1548,
            "type" : "SCALAR"
        },
        {
            "bufferView" : 17,
            "componentType" : 5126,
            "count" : 1972,
            "max" : [
                2.0230000019073486,
                0,
                1.5712037086486816
            ],
            "min" : [
                -1.8980001211166382,
                0,
                -0.349796324968338
            ],
            "type" : "VEC3"
        },
        {
            "bufferView" : 18,
            "componentType" : 5126,
            "count" : 1972,
            "type" : "VEC2"
        },
        {
            "bufferView" : 19,
            "componentType" : 5126,
            "count" : 1972,
            "type" : "VEC3"
        },
        {
            "bufferView" : 20,
            "componentType" : 5123,
            "count" : 4284,
            "type" : "SCALAR"
        },
        {
            "bufferView" : 21,
            "componentType" : 5126,
            "count" : 26,
            "max" : [
                0.046046894043684006,
                0.2009126842021942,
                0.1152193546295166
            ],
            "min" : [
                -0.046046897768974304,
                -0.20091283321380615,
                -0.11521923542022705
            ],
            "type" : "VEC3"
        },
        {
            "bufferView" : 22,
            "componentType" : 5126,
            "count" : 26,
            "type" : "VEC2"
        },
        {
            "bufferView" : 23,
            "componentType" : 5126,
            "count" : 26,
            "type" : "VEC3"
        },
        {
            "bufferView" : 24,
            "componentType" : 5123,
            "count" : 72,
            "type" : "SCALAR"
        },
        {
            "bufferView" : 25,
            "componentType" : 5126,
            "count" : 26,
            "max" : [
                0.046046894043684006,
                0.2009126842021942,
                0.1152193546295166
            ],
            "min" : [
                -0.046046897768974304,
                -0.20091283321380615,
                -0.11521923542022705
            ],
            "type" : "VEC3"
        },
        {
            "bufferView" : 26,
            "componentType" : 5126,
            "count" : 26,
            "type" : "VEC2"
        },
        {
            "bufferView" : 27,
            "componentType" : 5126,
            "count" : 26,
            "type" : "VEC3"
        },
        {
            "bufferView" : 28,
            "componentType" : 5126,
            "count" : 26,
            "max" : [
                0.046046894043684006,
                0.2009126842021942,
                0.1152193546295166
            ],
            "min" : [
                -0.046046897768974304,
                -0.20091283321380615,
                -0.11521923542022705
            ],
            "type" : "VEC3"
        },
        {
            "bufferView" : 29,
            "componentType" : 5126,
            "count" : 26,
            "type" : "VEC2"
        },
        {
            "bufferView" : 30,
            "componentType" : 5126,
            "count" : 26,
            "type" : "VEC3"
        }
    ],
    "bufferViews" : [
        {
            "buffer" : 0,
            "byteLength" : 83304,
            "byteOffset" : 0,
            "target" : 34962
        },
        {
            "buffer" : 0,
            "byteLength" : 55536,
            "byteOffset" : 83304,
            "target" : 34962
        },
        {
            "buffer" : 0,
            "byteLength" : 83304,
            "byteOffset" : 138840,
            "target" : 34962
        },
        {
            "buffer" : 0,
            "byteLength" : 68700,
            "byteOffset" : 222144,
            "target" : 34963
        },
        {
            "buffer" : 0,
            "byteLength" : 231788,
            "byteOffset" : 290844
        },
        {
            "buffer" : 0,
            "byteLength" : 6924,
            "byteOffset" : 522632,
            "target" : 34962
        },
        {
            "buffer" : 0,
            "byteLength" : 4616,
            "byteOffset" : 529556,
            "target" : 34962
        },
        {
            "buffer" : 0,
            "byteLength" : 6924,
            "byteOffset" : 534172,
            "target" : 34962
        },
        {
            "buffer" : 0,
            "byteLength" : 4920,
            "byteOffset" : 541096,
            "target" : 34963
        },
        {
            "buffer" : 0,
            "byteLength" : 12912,
            "byteOffset" : 546016,
            "target" : 34962
        },
        {
            "buffer" : 0,
            "byteLength" : 8608,
            "byteOffset" : 558928,
            "target" : 34962
        },
        {
            "buffer" : 0,
            "byteLength" : 12912,
            "byteOffset" : 567536,
            "target" : 34962
        },
        {
            "buffer" : 0,
            "byteLength" : 4860,
            "byteOffset" : 580448,
            "target" : 34963
        },
        {
            "buffer" : 0,
            "byteLength" : 8412,
            "byteOffset" : 585308,
            "target" : 34962
        },
        {
            "buffer" : 0,
            "byteLength" : 5608,
            "byteOffset" : 593720,
            "target" : 34962
        },
        {
            "buffer" : 0,
            "byteLength" : 8412,
            "byteOffset" : 599328,
            "target" : 34962
        },
        {
            "buffer" : 0,
            "byteLength" : 3096,
            "byteOffset" : 607740,
            "target" : 34963
        },
        {
            "buffer" : 0,
            "byteLength" : 23664,
            "byteOffset" : 610836,
            "target" : 34962
        },
        {
            "buffer" : 0,
            "byteLength" : 15776,
            "byteOffset" : 634500,
            "target" : 34962
        },
        {
            "buffer" : 0,
            "byteLength" : 23664,
            "byteOffset" : 650276,
            "target" : 34962
        },
        {
            "buffer" : 0,
            "byteLength" : 8568,
            "byteOffset" : 673940,
            "target" : 34963
        },
        {
            "buffer" : 0,
            "byteLength" : 312,
            "byteOffset" : 682508,
            "target" : 34962
        },
        {
            "buffer" : 0,
            "byteLength" : 208,
            "byteOffset" : 682820,
            "target" : 34962
        },
        {
            "buffer" : 0,
            "byteLength" : 312,
            "byteOffset" : 683028,
            "target" : 34962
        },
        {
            "buffer" : 0,
            "byteLength" : 144,
            "byteOffset" : 683340,
            "target" : 34963
        },
        {
            "buffer" : 0,
            "byteLength" : 312,
            "byteOffset" : 683484,
            "target" : 34962
        },
        {
            "buffer" : 0,
            "byteLength" : 208,
            "byteOffset" : 683796,
            "target" : 34962
        },
        {
            "buffer" : 0,
            "byteLength" : 312,
            "byteOffset" : 684004,
            "target" : 34962
        },
        {
            "buffer" : 0,
            "byteLength" : 312,
            "byteOffset" : 684316,
            "target" : 34962
        },
        {
            "buffer" : 0,
            "byteLength" : 208,
            "byteOffset" : 684628,
            "target" : 34962
        },
        {
            "buffer" : 0,
            "byteLength" : 312,
            "byteOffset" : 684836,
            "target" : 34962
        }
    ],
    "samplers" : [
        {
            "magFilter" : 9729,
            "minFilter" : 9987
        }
    ],
    "buffers" : [
        {
            "byteLength" : 685148,
            "uri" : "data:application/octet-stream;base64,"
        }
    ]
}
