{
    "asset" : {
        "generator" : "Khronos glTF Blender I/O v3.4.50",
        "version" : "2.0"
    },
    "scene" : 0,
    "scenes" : [
        {
            "name" : "Scene",
            "nodes" : [
                0
            ]
        }
    ],
    "nodes" : [
        {
            "mesh" : 0,
            "name" : "Liver.007",
            "rotation" : [
                0,
                0.023063331842422485,
                0,
                0.9997339844703674
            ],
            "scale" : [
                0.4170149564743042,
                0.4170149564743042,
                0.4170149564743042
            ],
            "translation" : [
                0.032056212425231934,
                0,
                0
            ]
        }
    ],
    "materials" : [
        {
            "doubleSided" : true,
            "name" : "Organ",
            "pbrMetallicRoughness" : {
                "baseColorTexture" : {
                    "index" : 0
                },
                "metallicRoughnessTexture" : {
                    "index" : 1
                }
            }
        },
        {
            "doubleSided" : true,
            "name" : "Ligament",
            "pbrMetallicRoughness" : {
                "baseColorFactor" : [
                    0.6111838221549988,
                    0.5295292139053345,
                    0.23518991470336914,
                    1
                ],
                "metallicFactor" : 0
            }
        }
    ],
    "meshes" : [
        {
            "name" : "Mesh.006",
            "primitives" : [
                {
                    "attributes" : {
                        "POSITION" : 0,
                        "TEXCOORD_0" : 1,
                        "NORMAL" : 2
                    },
                    "indices" : 3,
                    "material" : 0
                },
                {
                    "attributes" : {
                        "POSITION" : 4,
                        "TEXCOORD_0" : 5,
                        "NORMAL" : 6
                    },
                    "indices" : 7,
                    "material" : 1
                }
            ]
        }
    ],
    "textures" : [
        {
            "sampler" : 0,
            "source" : 0
        },
        {
            "sampler" : 0,
            "source" : 1
        }
    ],
    "images" : [
        {
            "bufferView" : 4,
            "mimeType" : "image/png",
            "name" : "Liver_Base_WLight"
        },
        {
            "bufferView" : 5,
            "mimeType" : "image/png",
            "name" : "Liver_Rough_Metall"
        }
    ],
    "accessors" : [
        {
            "bufferView" : 0,
            "componentType" : 5126,
            "count" : 2221,
            "max" : [
                0.48371201753616333,
                0.984568178653717,
                0.3608884811401367
            ],
            "min" : [
                -0.4839448928833008,
                0.20184653997421265,
                -0.361224889755249
            ],
            "type" : "VEC3"
        },
        {
            "bufferView" : 1,
            "componentType" : 5126,
            "count" : 2221,
            "type" : "VEC2"
        },
        {
            "bufferView" : 2,
            "componentType" : 5126,
            "count" : 2221,
            "type" : "VEC3"
        },
        {
            "bufferView" : 3,
            "componentType" : 5123,
            "count" : 8382,
            "type" : "SCALAR"
        },
        {
            "bufferView" : 6,
            "componentType" : 5126,
            "count" : 208,
            "max" : [
                0.4854421019554138,
                0.984568178653717,
                0.3608884811401367
            ],
            "min" : [
                -0.30812329053878784,
                0.5176584124565125,
                -0.3463735580444336
            ],
            "type" : "VEC3"
        },
        {
            "bufferView" : 7,
            "componentType" : 5126,
            "count" : 208,
            "type" : "VEC2"
        },
        {
            "bufferView" : 8,
            "componentType" : 5126,
            "count" : 208,
            "type" : "VEC3"
        },
        {
            "bufferView" : 9,
            "componentType" : 5123,
            "count" : 624,
            "type" : "SCALAR"
        }
    ],
    "bufferViews" : [
        {
            "buffer" : 0,
            "byteLength" : 26652,
            "byteOffset" : 0,
            "target" : 34962
        },
        {
            "buffer" : 0,
            "byteLength" : 17768,
            "byteOffset" : 26652,
            "target" : 34962
        },
        {
            "buffer" : 0,
            "byteLength" : 26652,
            "byteOffset" : 44420,
            "target" : 34962
        },
        {
            "buffer" : 0,
            "byteLength" : 16764,
            "byteOffset" : 71072,
            "target" : 34963
        },
        {
            "buffer" : 0,
            "byteLength" : 2762657,
            "byteOffset" : 87836
        },
        {
            "buffer" : 0,
            "byteLength" : 126507,
            "byteOffset" : 2850496
        },
        {
            "buffer" : 0,
            "byteLength" : 2496,
            "byteOffset" : 2977004,
            "target" : 34962
        },
        {
            "buffer" : 0,
            "byteLength" : 1664,
            "byteOffset" : 2979500,
            "target" : 34962
        },
        {
            "buffer" : 0,
            "byteLength" : 2496,
            "byteOffset" : 2981164,
            "target" : 34962
        },
        {
            "buffer" : 0,
            "byteLength" : 1248,
            "byteOffset" : 2983660,
            "target" : 34963
        }
    ],
    "samplers" : [
        {
            "magFilter" : 9729,
            "minFilter" : 9987
        }
    ],
    "buffers" : [
        {
            "byteLength" : 2984908,
            "uri" : "data:application/octet-stream;base64,"
        }
    ]
}
