{
    "asset" : {
        "generator" : "Khronos glTF Blender I/O v3.4.50",
        "version" : "2.0"
    },
    "scene" : 0,
    "scenes" : [
        {
            "name" : "Scene",
            "nodes" : [
                0,
                1,
                2,
                3,
                4,
                5,
                6
            ]
        }
    ],
    "nodes" : [
        {
            "mesh" : 0,
            "name" : "Liver",
            "rotation" : [
                0,
                -0.7006313800811768,
                0,
                0.7135234475135803
            ],
            "scale" : [
                0.29029521346092224,
                0.276157021522522,
                0.29029521346092224
            ],
            "translation" : [
                -0.03564548119902611,
                0.30425700545310974,
                -0.15404345095157623
            ]
        },
        {
            "mesh" : 1,
            "name" : "Text",
            "rotation" : [
                0.7071068286895752,
                0,
                0,
                0.7071067690849304
            ],
            "scale" : [
                0.01846879906952381,
                0.01846879906952381,
                0.01846879906952381
            ],
            "translation" : [
                -0.1658809334039688,
                0.39699235558509827,
                -0.15404343605041504
            ]
        },
        {
            "mesh" : 2,
            "name" : "Text.001",
            "rotation" : [
                0.7071068286895752,
                0,
                0,
                0.7071067690849304
            ],
            "scale" : [
                0.01846879906952381,
                0.01846879906952381,
                0.01846879906952381
            ],
            "translation" : [
                0.13418644666671753,
                0.40590614080429077,
                -0.15404348075389862
            ]
        },
        {
            "mesh" : 3,
            "name" : "Text.002",
            "rotation" : [
                0.7071068286895752,
                0,
                0,
                0.7071068286895752
            ],
            "scale" : [
                0.011858658865094185,
                0.011858658865094185,
                0.011858658865094185
            ],
            "translation" : [
                0.0035004019737243652,
                0.4560519754886627,
                -0.15960726141929626
            ]
        },
        {
            "mesh" : 4,
            "name" : "Line",
            "rotation" : [
                0.06959012895822525,
                -0.7036740779876709,
                -0.06959012895822525,
                0.7036740779876709
            ],
            "scale" : [
                0.053157150745391846,
                0.053157150745391846,
                0.05315714702010155
            ],
            "translation" : [
                0.09890046715736389,
                0.3659088611602783,
                -0.15636537969112396
            ]
        },
        {
            "mesh" : 5,
            "name" : "Line.001",
            "rotation" : [
                0.44446101784706116,
                -0.5499585270881653,
                0.32812801003456116,
                0.6263641715049744
            ],
            "scale" : [
                0.053157150745391846,
                0.053157150745391846,
                0.053157150745391846
            ],
            "translation" : [
                -0.16235238313674927,
                0.36001816391944885,
                -0.15636533498764038
            ]
        },
        {
            "mesh" : 6,
            "name" : "Line.002",
            "rotation" : [
                0.1495887190103531,
                -0.7770560383796692,
                0.08884626626968384,
                0.6049078702926636
            ],
            "scale" : [
                0.043938446789979935,
                0.12372799962759018,
                0.07526200264692307
            ],
            "translation" : [
                0.005575269460678101,
                0.40331488847732544,
                -0.1580737978219986
            ]
        }
    ],
    "materials" : [
        {
            "doubleSided" : true,
            "name" : "Organ.001",
            "pbrMetallicRoughness" : {
                "baseColorFactor" : [
                    1,
                    0.05381016805768013,
                    0.008407593704760075,
                    1
                ],
                "metallicFactor" : 0
            }
        },
        {
            "doubleSided" : true,
            "name" : "Ligament",
            "pbrMetallicRoughness" : {
                "baseColorFactor" : [
                    1,
                    0.2655348777770996,
                    0.047495219856500626,
                    1
                ],
                "metallicFactor" : 0,
                "roughnessFactor" : 0.6545454263687134
            }
        },
        {
            "doubleSided" : true,
            "emissiveFactor" : [
                1,
                1,
                1
            ],
            "name" : "Material.001",
            "pbrMetallicRoughness" : {
                "baseColorFactor" : [
                    0,
                    0,
                    0,
                    1
                ]
            }
        }
    ],
    "meshes" : [
        {
            "name" : "Mesh.001",
            "primitives" : [
                {
                    "attributes" : {
                        "POSITION" : 0,
                        "TEXCOORD_0" : 1,
                        "NORMAL" : 2
                    },
                    "indices" : 3,
                    "material" : 0
                },
                {
                    "attributes" : {
                        "POSITION" : 4,
                        "TEXCOORD_0" : 5,
                        "NORMAL" : 6
                    },
                    "indices" : 7,
                    "material" : 1
                }
            ]
        },
        {
            "name" : "Text",
            "primitives" : [
                {
                    "attributes" : {
                        "POSITION" : 8,
                        "TEXCOORD_0" : 9,
                        "NORMAL" : 10
                    },
                    "indices" : 11,
                    "material" : 2
                }
            ]
        },
        {
            "name" : "Text.001",
            "primitives" : [
                {
                    "attributes" : {
                        "POSITION" : 12,
                        "TEXCOORD_0" : 13,
                        "NORMAL" : 14
                    },
                    "indices" : 15,
                    "material" : 2
                }
            ]
        },
        {
            "name" : "Text.002",
            "primitives" : [
                {
                    "attributes" : {
                        "POSITION" : 16,
                        "TEXCOORD_0" : 17,
                        "NORMAL" : 18
                    },
                    "indices" : 19,
                    "material" : 2
                }
            ]
        },
        {
            "name" : "Line",
            "primitives" : [
                {
                    "attributes" : {
                        "POSITION" : 20,
                        "TEXCOORD_0" : 21,
                        "NORMAL" : 22
                    },
                    "indices" : 23,
                    "material" : 2
                }
            ]
        },
        {
            "name" : "Line.001",
            "primitives" : [
                {
                    "attributes" : {
                        "POSITION" : 24,
                        "TEXCOORD_0" : 25,
                        "NORMAL" : 26
                    },
                    "indices" : 23,
                    "material" : 2
                }
            ]
        },
        {
            "name" : "Line.002",
            "primitives" : [
                {
                    "attributes" : {
                        "POSITION" : 27,
                        "TEXCOORD_0" : 28,
                        "NORMAL" : 29
                    },
                    "indices" : 23,
                    "material" : 2
                }
            ]
        }
    ],
    "accessors" : [
        {
            "bufferView" : 0,
            "componentType" : 5126,
            "count" : 2891,
            "max" : [
                0.26539868116378784,
                0.31574249267578125,
                0.43727177381515503
            ],
            "min" : [
                -0.36582696437835693,
                -0.4226376414299011,
                -0.4955502152442932
            ],
            "type" : "VEC3"
        },
        {
            "bufferView" : 1,
            "componentType" : 5126,
            "count" : 2891,
            "type" : "VEC2"
        },
        {
            "bufferView" : 2,
            "componentType" : 5126,
            "count" : 2891,
            "type" : "VEC3"
        },
        {
            "bufferView" : 3,
            "componentType" : 5123,
            "count" : 11931,
            "type" : "SCALAR"
        },
        {
            "bufferView" : 4,
            "componentType" : 5126,
            "count" : 278,
            "max" : [
                0.23029391467571259,
                0.31574249267578125,
                0.32022976875305176
            ],
            "min" : [
                -0.3542560636997223,
                -0.12471672147512436,
                -0.4932979345321655
            ],
            "type" : "VEC3"
        },
        {
            "bufferView" : 5,
            "componentType" : 5126,
            "count" : 278,
            "type" : "VEC2"
        },
        {
            "bufferView" : 6,
            "componentType" : 5126,
            "count" : 278,
            "type" : "VEC3"
        },
        {
            "bufferView" : 7,
            "componentType" : 5123,
            "count" : 939,
            "type" : "SCALAR"
        },
        {
            "bufferView" : 8,
            "componentType" : 5126,
            "count" : 1076,
            "max" : [
                -0.13100016117095947,
                0,
                1.2350000143051147
            ],
            "min" : [
                -2.139000415802002,
                0,
                -0.45600003004074097
            ],
            "type" : "VEC3"
        },
        {
            "bufferView" : 9,
            "componentType" : 5126,
            "count" : 1076,
            "type" : "VEC2"
        },
        {
            "bufferView" : 10,
            "componentType" : 5126,
            "count" : 1076,
            "type" : "VEC3"
        },
        {
            "bufferView" : 11,
            "componentType" : 5123,
            "count" : 2430,
            "type" : "SCALAR"
        },
        {
            "bufferView" : 12,
            "componentType" : 5126,
            "count" : 701,
            "max" : [
                0.04199996590614319,
                0,
                1.3502036333084106
            ],
            "min" : [
                -1.8720000982284546,
                0,
                -0.3502037525177002
            ],
            "type" : "VEC3"
        },
        {
            "bufferView" : 13,
            "componentType" : 5126,
            "count" : 701,
            "type" : "VEC2"
        },
        {
            "bufferView" : 14,
            "componentType" : 5126,
            "count" : 701,
            "type" : "VEC3"
        },
        {
            "bufferView" : 15,
            "componentType" : 5123,
            "count" : 1548,
            "type" : "SCALAR"
        },
        {
            "bufferView" : 16,
            "componentType" : 5126,
            "count" : 1972,
            "max" : [
                2.0230000019073486,
                0,
                1.5712037086486816
            ],
            "min" : [
                -1.8980001211166382,
                0,
                -0.349796324968338
            ],
            "type" : "VEC3"
        },
        {
            "bufferView" : 17,
            "componentType" : 5126,
            "count" : 1972,
            "type" : "VEC2"
        },
        {
            "bufferView" : 18,
            "componentType" : 5126,
            "count" : 1972,
            "type" : "VEC3"
        },
        {
            "bufferView" : 19,
            "componentType" : 5123,
            "count" : 4284,
            "type" : "SCALAR"
        },
        {
            "bufferView" : 20,
            "componentType" : 5126,
            "count" : 26,
            "max" : [
                0.046046894043684006,
                0.2009126842021942,
                0.1152193546295166
            ],
            "min" : [
                -0.046046897768974304,
                -0.20091283321380615,
                -0.11521923542022705
            ],
            "type" : "VEC3"
        },
        {
            "bufferView" : 21,
            "componentType" : 5126,
            "count" : 26,
            "type" : "VEC2"
        },
        {
            "bufferView" : 22,
            "componentType" : 5126,
            "count" : 26,
            "type" : "VEC3"
        },
        {
            "bufferView" : 23,
            "componentType" : 5123,
            "count" : 72,
            "type" : "SCALAR"
        },
        {
            "bufferView" : 24,
            "componentType" : 5126,
            "count" : 26,
            "max" : [
                0.046046894043684006,
                0.2009126842021942,
                0.1152193546295166
            ],
            "min" : [
                -0.046046897768974304,
                -0.20091283321380615,
                -0.11521923542022705
            ],
            "type" : "VEC3"
        },
        {
            "bufferView" : 25,
            "componentType" : 5126,
            "count" : 26,
            "type" : "VEC2"
        },
        {
            "bufferView" : 26,
            "componentType" : 5126,
            "count" : 26,
            "type" : "VEC3"
        },
        {
            "bufferView" : 27,
            "componentType" : 5126,
            "count" : 26,
            "max" : [
                0.046046894043684006,
                0.2009126842021942,
                0.1152193546295166
            ],
            "min" : [
                -0.046046897768974304,
                -0.20091283321380615,
                -0.11521923542022705
            ],
            "type" : "VEC3"
        },
        {
            "bufferView" : 28,
            "componentType" : 5126,
            "count" : 26,
            "type" : "VEC2"
        },
        {
            "bufferView" : 29,
            "componentType" : 5126,
            "count" : 26,
            "type" : "VEC3"
        }
    ],
    "bufferViews" : [
        {
            "buffer" : 0,
            "byteLength" : 34692,
            "byteOffset" : 0,
            "target" : 34962
        },
        {
            "buffer" : 0,
            "byteLength" : 23128,
            "byteOffset" : 34692,
            "target" : 34962
        },
        {
            "buffer" : 0,
            "byteLength" : 34692,
            "byteOffset" : 57820,
            "target" : 34962
        },
        {
            "buffer" : 0,
            "byteLength" : 23862,
            "byteOffset" : 92512,
            "target" : 34963
        },
        {
            "buffer" : 0,
            "byteLength" : 3336,
            "byteOffset" : 116376,
            "target" : 34962
        },
        {
            "buffer" : 0,
            "byteLength" : 2224,
            "byteOffset" : 119712,
            "target" : 34962
        },
        {
            "buffer" : 0,
            "byteLength" : 3336,
            "byteOffset" : 121936,
            "target" : 34962
        },
        {
            "buffer" : 0,
            "byteLength" : 1878,
            "byteOffset" : 125272,
            "target" : 34963
        },
        {
            "buffer" : 0,
            "byteLength" : 12912,
            "byteOffset" : 127152,
            "target" : 34962
        },
        {
            "buffer" : 0,
            "byteLength" : 8608,
            "byteOffset" : 140064,
            "target" : 34962
        },
        {
            "buffer" : 0,
            "byteLength" : 12912,
            "byteOffset" : 148672,
            "target" : 34962
        },
        {
            "buffer" : 0,
            "byteLength" : 4860,
            "byteOffset" : 161584,
            "target" : 34963
        },
        {
            "buffer" : 0,
            "byteLength" : 8412,
            "byteOffset" : 166444,
            "target" : 34962
        },
        {
            "buffer" : 0,
            "byteLength" : 5608,
            "byteOffset" : 174856,
            "target" : 34962
        },
        {
            "buffer" : 0,
            "byteLength" : 8412,
            "byteOffset" : 180464,
            "target" : 34962
        },
        {
            "buffer" : 0,
            "byteLength" : 3096,
            "byteOffset" : 188876,
            "target" : 34963
        },
        {
            "buffer" : 0,
            "byteLength" : 23664,
            "byteOffset" : 191972,
            "target" : 34962
        },
        {
            "buffer" : 0,
            "byteLength" : 15776,
            "byteOffset" : 215636,
            "target" : 34962
        },
        {
            "buffer" : 0,
            "byteLength" : 23664,
            "byteOffset" : 231412,
            "target" : 34962
        },
        {
            "buffer" : 0,
            "byteLength" : 8568,
            "byteOffset" : 255076,
            "target" : 34963
        },
        {
            "buffer" : 0,
            "byteLength" : 312,
            "byteOffset" : 263644,
            "target" : 34962
        },
        {
            "buffer" : 0,
            "byteLength" : 208,
            "byteOffset" : 263956,
            "target" : 34962
        },
        {
            "buffer" : 0,
            "byteLength" : 312,
            "byteOffset" : 264164,
            "target" : 34962
        },
        {
            "buffer" : 0,
            "byteLength" : 144,
            "byteOffset" : 264476,
            "target" : 34963
        },
        {
            "buffer" : 0,
            "byteLength" : 312,
            "byteOffset" : 264620,
            "target" : 34962
        },
        {
            "buffer" : 0,
            "byteLength" : 208,
            "byteOffset" : 264932,
            "target" : 34962
        },
        {
            "buffer" : 0,
            "byteLength" : 312,
            "byteOffset" : 265140,
            "target" : 34962
        },
        {
            "buffer" : 0,
            "byteLength" : 312,
            "byteOffset" : 265452,
            "target" : 34962
        },
        {
            "buffer" : 0,
            "byteLength" : 208,
            "byteOffset" : 265764,
            "target" : 34962
        },
        {
            "buffer" : 0,
            "byteLength" : 312,
            "byteOffset" : 265972,
            "target" : 34962
        }
    ],
    "buffers" : [
        {
            "byteLength" : 266284,
            "uri" : "data:application/octet-stream;base64,"
        }
    ]
}
