{
	"asset":{
		"generator":"Khronos glTF Blender I/O v4.0.44",
		"version":"2.0"
	},
	"extensionsUsed":[
		"KHR_materials_emissive_strength"
	],
	"scene":0,
	"scenes":[
		{
			"name":"Scene",
			"nodes":[
				6
			]
		}
	],
	"nodes":[
		{
			"mesh":0,
			"name":"Line",
			"rotation":[
				0.0008550540660507977,
				-0.009063076227903366,
				-0.09851932525634766,
				0.9950935244560242
			],
			"scale":[
				0.18348264694213867,
				0.19213759899139404,
				0.18311412632465363
			],
			"translation":[
				0.00045267632231116295,
				0.22324919700622559,
				-0.46354857087135315
			]
		},
		{
			"mesh":1,
			"name":"Line.001",
			"rotation":[
				0.5469733476638794,
				0.04651597514748573,
				-0.07803921401500702,
				0.8322057127952576
			],
			"scale":[
				0.183172345161438,
				0.18456755578517914,
				0.19103989005088806
			],
			"translation":[
				-0.015954570844769478,
				0.2019181251525879,
				0.43625766038894653
			]
		},
		{
			"mesh":2,
			"name":"Line.002",
			"rotation":[
				0.16894467175006866,
				-0.1302265077829361,
				-0.04262065514922142,
				0.9760543704032898
			],
			"scale":[
				0.15148192644119263,
				0.4455282390117645,
				0.26064226031303406
			],
			"translation":[
				-0.01129253301769495,
				0.35870110988616943,
				-0.1422254890203476
			]
		},
		{
			"mesh":3,
			"name":"Text",
			"rotation":[
				0.5045372843742371,
				0.4954211711883545,
				-0.49542123079299927,
				0.5045372247695923
			],
			"scale":[
				0.06362075358629227,
				0.06362075358629227,
				0.06687788665294647
			],
			"translation":[
				-0.00817909836769104,
				0.3358064889907837,
				0.4485565423965454
			]
		},
		{
			"mesh":4,
			"name":"Text.001",
			"rotation":[
				0.5045372843742371,
				0.4954211711883545,
				-0.49542123079299927,
				0.5045372247695923
			],
			"scale":[
				0.06362075358629227,
				0.06362075358629227,
				0.06687788665294647
			],
			"translation":[
				0.01066581066697836,
				0.3680844306945801,
				-0.5849345922470093
			]
		},
		{
			"mesh":5,
			"name":"Text.002",
			"rotation":[
				0.5045373439788818,
				0.4954212009906769,
				-0.49542126059532166,
				0.5045372843742371
			],
			"scale":[
				0.04085034877061844,
				0.040850356221199036,
				0.042941730469465256
			],
			"translation":[
				-0.016704391688108444,
				0.5496689081192017,
				-0.13517555594444275
			]
		},
		{
			"children":[
				0,
				1,
				2,
				3,
				4,
				5
			],
			"mesh":6,
			"name":"Liver",
			"rotation":[
				0,
				-0.7006313800811768,
				0,
				0.7135234475135803
			],
			"scale":[
				0.29029521346092224,
				0.276157021522522,
				0.29029521346092224
			],
			"translation":[
				-0.013666186481714249,
				0.30425700545310974,
				0.0034748315811157227
			]
		}
	],
	"animations":[
		{
			"channels":[
				{
					"sampler":0,
					"target":{
						"node":6,
						"path":"rotation"
					}
				},
				{
					"sampler":1,
					"target":{
						"node":6,
						"path":"scale"
					}
				}
			],
			"name":"LiverAction",
			"samplers":[
				{
					"input":30,
					"interpolation":"LINEAR",
					"output":31
				},
				{
					"input":30,
					"interpolation":"LINEAR",
					"output":32
				}
			]
		}
	],
	"materials":[
		{
			"doubleSided":true,
			"emissiveFactor":[
				1,
				1,
				1
			],
			"extensions":{
				"KHR_materials_emissive_strength":{
					"emissiveStrength":3
				}
			},
			"name":"Material.001",
			"pbrMetallicRoughness":{}
		},
		{
			"doubleSided":true,
			"name":"Organ.001",
			"pbrMetallicRoughness":{
				"baseColorFactor":[
					0.6073049902915955,
					0.03935884311795235,
					0.008175291121006012,
					1
				],
				"metallicFactor":0
			}
		},
		{
			"doubleSided":true,
			"name":"Ligament",
			"pbrMetallicRoughness":{
				"baseColorFactor":[
					1,
					0.29123568534851074,
					0.06454324722290039,
					1
				],
				"metallicFactor":0
			}
		}
	],
	"meshes":[
		{
			"name":"Line",
			"primitives":[
				{
					"attributes":{
						"POSITION":0,
						"NORMAL":1,
						"TEXCOORD_0":2
					},
					"indices":3,
					"material":0
				}
			]
		},
		{
			"name":"Line.001",
			"primitives":[
				{
					"attributes":{
						"POSITION":4,
						"NORMAL":5,
						"TEXCOORD_0":6
					},
					"indices":3,
					"material":0
				}
			]
		},
		{
			"name":"Line.002",
			"primitives":[
				{
					"attributes":{
						"POSITION":7,
						"NORMAL":8,
						"TEXCOORD_0":9
					},
					"indices":3,
					"material":0
				}
			]
		},
		{
			"name":"Text",
			"primitives":[
				{
					"attributes":{
						"POSITION":10,
						"NORMAL":11,
						"TEXCOORD_0":12
					},
					"indices":13,
					"material":0
				}
			]
		},
		{
			"name":"Text.001",
			"primitives":[
				{
					"attributes":{
						"POSITION":14,
						"NORMAL":15,
						"TEXCOORD_0":16
					},
					"indices":17,
					"material":0
				}
			]
		},
		{
			"name":"Text.002",
			"primitives":[
				{
					"attributes":{
						"POSITION":18,
						"NORMAL":19,
						"TEXCOORD_0":20
					},
					"indices":21,
					"material":0
				}
			]
		},
		{
			"name":"Mesh.001",
			"primitives":[
				{
					"attributes":{
						"POSITION":22,
						"NORMAL":23,
						"TEXCOORD_0":24
					},
					"indices":25,
					"material":1
				},
				{
					"attributes":{
						"POSITION":26,
						"NORMAL":27,
						"TEXCOORD_0":28
					},
					"indices":29,
					"material":2
				}
			]
		}
	],
	"accessors":[
		{
			"bufferView":0,
			"componentType":5126,
			"count":26,
			"max":[
				0.046046894043684006,
				0.2009126842021942,
				0.1152193546295166
			],
			"min":[
				-0.046046897768974304,
				-0.20091283321380615,
				-0.11521923542022705
			],
			"type":"VEC3"
		},
		{
			"bufferView":1,
			"componentType":5126,
			"count":26,
			"type":"VEC3"
		},
		{
			"bufferView":2,
			"componentType":5126,
			"count":26,
			"type":"VEC2"
		},
		{
			"bufferView":3,
			"componentType":5123,
			"count":72,
			"type":"SCALAR"
		},
		{
			"bufferView":4,
			"componentType":5126,
			"count":26,
			"max":[
				0.046046894043684006,
				0.2009126842021942,
				0.1152193546295166
			],
			"min":[
				-0.046046897768974304,
				-0.20091283321380615,
				-0.11521923542022705
			],
			"type":"VEC3"
		},
		{
			"bufferView":5,
			"componentType":5126,
			"count":26,
			"type":"VEC3"
		},
		{
			"bufferView":6,
			"componentType":5126,
			"count":26,
			"type":"VEC2"
		},
		{
			"bufferView":7,
			"componentType":5126,
			"count":26,
			"max":[
				0.046046894043684006,
				0.2009126842021942,
				0.1152193546295166
			],
			"min":[
				-0.046046897768974304,
				-0.20091283321380615,
				-0.11521923542022705
			],
			"type":"VEC3"
		},
		{
			"bufferView":8,
			"componentType":5126,
			"count":26,
			"type":"VEC3"
		},
		{
			"bufferView":9,
			"componentType":5126,
			"count":26,
			"type":"VEC2"
		},
		{
			"bufferView":10,
			"componentType":5126,
			"count":1076,
			"max":[
				-0.13100016117095947,
				0,
				1.2350000143051147
			],
			"min":[
				-2.139000415802002,
				0,
				-0.45600003004074097
			],
			"type":"VEC3"
		},
		{
			"bufferView":11,
			"componentType":5126,
			"count":1076,
			"type":"VEC3"
		},
		{
			"bufferView":12,
			"componentType":5126,
			"count":1076,
			"type":"VEC2"
		},
		{
			"bufferView":13,
			"componentType":5123,
			"count":2430,
			"type":"SCALAR"
		},
		{
			"bufferView":14,
			"componentType":5126,
			"count":701,
			"max":[
				0.04199996590614319,
				0,
				1.3502036333084106
			],
			"min":[
				-1.8720000982284546,
				0,
				-0.3502037525177002
			],
			"type":"VEC3"
		},
		{
			"bufferView":15,
			"componentType":5126,
			"count":701,
			"type":"VEC3"
		},
		{
			"bufferView":16,
			"componentType":5126,
			"count":701,
			"type":"VEC2"
		},
		{
			"bufferView":17,
			"componentType":5123,
			"count":1548,
			"type":"SCALAR"
		},
		{
			"bufferView":18,
			"componentType":5126,
			"count":1972,
			"max":[
				2.0230000019073486,
				0,
				1.5712037086486816
			],
			"min":[
				-1.8980001211166382,
				0,
				-0.349796324968338
			],
			"type":"VEC3"
		},
		{
			"bufferView":19,
			"componentType":5126,
			"count":1972,
			"type":"VEC3"
		},
		{
			"bufferView":20,
			"componentType":5126,
			"count":1972,
			"type":"VEC2"
		},
		{
			"bufferView":21,
			"componentType":5123,
			"count":4284,
			"type":"SCALAR"
		},
		{
			"bufferView":22,
			"componentType":5126,
			"count":6942,
			"max":[
				0.26539868116378784,
				0.3170510530471802,
				0.43748921155929565
			],
			"min":[
				-0.3658834397792816,
				-0.42307496070861816,
				-0.4955502152442932
			],
			"type":"VEC3"
		},
		{
			"bufferView":23,
			"componentType":5126,
			"count":6942,
			"type":"VEC3"
		},
		{
			"bufferView":24,
			"componentType":5126,
			"count":6942,
			"type":"VEC2"
		},
		{
			"bufferView":25,
			"componentType":5123,
			"count":34350,
			"type":"SCALAR"
		},
		{
			"bufferView":26,
			"componentType":5126,
			"count":577,
			"max":[
				0.23029391467571259,
				0.31666192412376404,
				0.32022976875305176
			],
			"min":[
				-0.3542560636997223,
				-0.12471672147512436,
				-0.4932979345321655
			],
			"type":"VEC3"
		},
		{
			"bufferView":27,
			"componentType":5126,
			"count":577,
			"type":"VEC3"
		},
		{
			"bufferView":28,
			"componentType":5126,
			"count":577,
			"type":"VEC2"
		},
		{
			"bufferView":29,
			"componentType":5123,
			"count":2460,
			"type":"SCALAR"
		},
		{
			"bufferView":30,
			"componentType":5126,
			"count":61,
			"max":[
				2.5416666666666665
			],
			"min":[
				0.041666666666666664
			],
			"type":"SCALAR"
		},
		{
			"bufferView":31,
			"componentType":5126,
			"count":61,
			"type":"VEC4"
		},
		{
			"bufferView":32,
			"componentType":5126,
			"count":61,
			"type":"VEC3"
		}
	],
	"bufferViews":[
		{
			"buffer":0,
			"byteLength":312,
			"byteOffset":0,
			"target":34962
		},
		{
			"buffer":0,
			"byteLength":312,
			"byteOffset":312,
			"target":34962
		},
		{
			"buffer":0,
			"byteLength":208,
			"byteOffset":624,
			"target":34962
		},
		{
			"buffer":0,
			"byteLength":144,
			"byteOffset":832,
			"target":34963
		},
		{
			"buffer":0,
			"byteLength":312,
			"byteOffset":976,
			"target":34962
		},
		{
			"buffer":0,
			"byteLength":312,
			"byteOffset":1288,
			"target":34962
		},
		{
			"buffer":0,
			"byteLength":208,
			"byteOffset":1600,
			"target":34962
		},
		{
			"buffer":0,
			"byteLength":312,
			"byteOffset":1808,
			"target":34962
		},
		{
			"buffer":0,
			"byteLength":312,
			"byteOffset":2120,
			"target":34962
		},
		{
			"buffer":0,
			"byteLength":208,
			"byteOffset":2432,
			"target":34962
		},
		{
			"buffer":0,
			"byteLength":12912,
			"byteOffset":2640,
			"target":34962
		},
		{
			"buffer":0,
			"byteLength":12912,
			"byteOffset":15552,
			"target":34962
		},
		{
			"buffer":0,
			"byteLength":8608,
			"byteOffset":28464,
			"target":34962
		},
		{
			"buffer":0,
			"byteLength":4860,
			"byteOffset":37072,
			"target":34963
		},
		{
			"buffer":0,
			"byteLength":8412,
			"byteOffset":41932,
			"target":34962
		},
		{
			"buffer":0,
			"byteLength":8412,
			"byteOffset":50344,
			"target":34962
		},
		{
			"buffer":0,
			"byteLength":5608,
			"byteOffset":58756,
			"target":34962
		},
		{
			"buffer":0,
			"byteLength":3096,
			"byteOffset":64364,
			"target":34963
		},
		{
			"buffer":0,
			"byteLength":23664,
			"byteOffset":67460,
			"target":34962
		},
		{
			"buffer":0,
			"byteLength":23664,
			"byteOffset":91124,
			"target":34962
		},
		{
			"buffer":0,
			"byteLength":15776,
			"byteOffset":114788,
			"target":34962
		},
		{
			"buffer":0,
			"byteLength":8568,
			"byteOffset":130564,
			"target":34963
		},
		{
			"buffer":0,
			"byteLength":83304,
			"byteOffset":139132,
			"target":34962
		},
		{
			"buffer":0,
			"byteLength":83304,
			"byteOffset":222436,
			"target":34962
		},
		{
			"buffer":0,
			"byteLength":55536,
			"byteOffset":305740,
			"target":34962
		},
		{
			"buffer":0,
			"byteLength":68700,
			"byteOffset":361276,
			"target":34963
		},
		{
			"buffer":0,
			"byteLength":6924,
			"byteOffset":429976,
			"target":34962
		},
		{
			"buffer":0,
			"byteLength":6924,
			"byteOffset":436900,
			"target":34962
		},
		{
			"buffer":0,
			"byteLength":4616,
			"byteOffset":443824,
			"target":34962
		},
		{
			"buffer":0,
			"byteLength":4920,
			"byteOffset":448440,
			"target":34963
		},
		{
			"buffer":0,
			"byteLength":244,
			"byteOffset":453360
		},
		{
			"buffer":0,
			"byteLength":976,
			"byteOffset":453604
		},
		{
			"buffer":0,
			"byteLength":732,
			"byteOffset":454580
		}
	],
	"buffers":[
		{
			"byteLength":455312,
			"uri":"LiverAnim.bin"
		}
	]
}
