{
	"asset":{
		"generator":"Khronos glTF Blender I/O v4.0.44",
		"version":"2.0"
	},
	"scene":0,
	"scenes":[
		{
			"name":"Scene",
			"nodes":[
				0
			]
		}
	],
	"nodes":[
		{
			"mesh":0,
			"name":"Femur.r",
			"rotation":[
				-0.5,
				0.5,
				0.5,
				0.5
			],
			"translation":[
				0.30173078179359436,
				0.34667742252349854,
				0.12429863214492798
			]
		}
	],
	"materials":[
		{
			"alphaCutoff":0,
			"alphaMode":"MASK",
			"doubleSided":true,
			"name":"Bone",
			"pbrMetallicRoughness":{
				"metallicFactor":0
			}
		},
		{
			"doubleSided":true,
			"name":"Bone2",
			"pbrMetallicRoughness":{
				"baseColorFactor":[
					0.800000011920929,
					0.800000011920929,
					0.800000011920929,
					1
				],
				"metallicFactor":0
			}
		},
		{
			"doubleSided":true,
			"name":"Bone3",
			"pbrMetallicRoughness":{
				"baseColorFactor":[
					0.800000011920929,
					0.800000011920929,
					0.800000011920929,
					1
				],
				"metallicFactor":0
			}
		},
		{
			"doubleSided":true,
			"name":"Bone4",
			"pbrMetallicRoughness":{
				"baseColorFactor":[
					0.800000011920929,
					0.800000011920929,
					0.800000011920929,
					1
				],
				"metallicFactor":0
			}
		}
	],
	"meshes":[
		{
			"name":"Femur",
			"primitives":[
				{
					"attributes":{
						"POSITION":0,
						"NORMAL":1,
						"TEXCOORD_0":2
					},
					"indices":3,
					"material":0
				},
				{
					"attributes":{
						"POSITION":4,
						"NORMAL":5,
						"TEXCOORD_0":6
					},
					"indices":7,
					"material":1
				},
				{
					"attributes":{
						"POSITION":8,
						"NORMAL":9,
						"TEXCOORD_0":10
					},
					"indices":11,
					"material":2
				},
				{
					"attributes":{
						"POSITION":12,
						"NORMAL":13,
						"TEXCOORD_0":14
					},
					"indices":15,
					"material":3
				}
			]
		}
	],
	"accessors":[
		{
			"bufferView":0,
			"componentType":5126,
			"count":256566,
			"max":[
				0.42698654532432556,
				1.0483371019363403,
				0.15647384524345398
			],
			"min":[
				-0.2422625869512558,
				-0.6479137539863586,
				-0.09364160150289536
			],
			"type":"VEC3"
		},
		{
			"bufferView":1,
			"componentType":5126,
			"count":256566,
			"type":"VEC3"
		},
		{
			"bufferView":2,
			"componentType":5126,
			"count":256566,
			"type":"VEC2"
		},
		{
			"bufferView":3,
			"componentType":5125,
			"count":1452900,
			"type":"SCALAR"
		},
		{
			"bufferView":4,
			"componentType":5126,
			"count":47242,
			"max":[
				0.42165035009384155,
				1.0420693159103394,
				0.14670993387699127
			],
			"min":[
				-0.23692642152309418,
				-0.6475412845611572,
				-0.06790297478437424
			],
			"type":"VEC3"
		},
		{
			"bufferView":5,
			"componentType":5126,
			"count":47242,
			"type":"VEC3"
		},
		{
			"bufferView":6,
			"componentType":5126,
			"count":47242,
			"type":"VEC2"
		},
		{
			"bufferView":7,
			"componentType":5123,
			"count":233871,
			"type":"SCALAR"
		},
		{
			"bufferView":8,
			"componentType":5126,
			"count":6094,
			"max":[
				0.17980653047561646,
				1.0481369495391846,
				0.10779381543397903
			],
			"min":[
				0.004917338490486145,
				0.1402226984500885,
				-0.08160342276096344
			],
			"type":"VEC3"
		},
		{
			"bufferView":9,
			"componentType":5126,
			"count":6094,
			"type":"VEC3"
		},
		{
			"bufferView":10,
			"componentType":5126,
			"count":6094,
			"type":"VEC2"
		},
		{
			"bufferView":11,
			"componentType":5123,
			"count":29274,
			"type":"SCALAR"
		},
		{
			"bufferView":12,
			"componentType":5126,
			"count":5297,
			"max":[
				0.19210487604141235,
				1.042434811592102,
				0.11543457955121994
			],
			"min":[
				-0.00738101452589035,
				0.18033930659294128,
				-0.08139439672231674
			],
			"type":"VEC3"
		},
		{
			"bufferView":13,
			"componentType":5126,
			"count":5297,
			"type":"VEC3"
		},
		{
			"bufferView":14,
			"componentType":5126,
			"count":5297,
			"type":"VEC2"
		},
		{
			"bufferView":15,
			"componentType":5123,
			"count":23022,
			"type":"SCALAR"
		}
	],
	"bufferViews":[
		{
			"buffer":0,
			"byteLength":3078792,
			"byteOffset":0,
			"target":34962
		},
		{
			"buffer":0,
			"byteLength":3078792,
			"byteOffset":3078792,
			"target":34962
		},
		{
			"buffer":0,
			"byteLength":2052528,
			"byteOffset":6157584,
			"target":34962
		},
		{
			"buffer":0,
			"byteLength":5811600,
			"byteOffset":8210112,
			"target":34963
		},
		{
			"buffer":0,
			"byteLength":566904,
			"byteOffset":14021712,
			"target":34962
		},
		{
			"buffer":0,
			"byteLength":566904,
			"byteOffset":14588616,
			"target":34962
		},
		{
			"buffer":0,
			"byteLength":377936,
			"byteOffset":15155520,
			"target":34962
		},
		{
			"buffer":0,
			"byteLength":467742,
			"byteOffset":15533456,
			"target":34963
		},
		{
			"buffer":0,
			"byteLength":73128,
			"byteOffset":16001200,
			"target":34962
		},
		{
			"buffer":0,
			"byteLength":73128,
			"byteOffset":16074328,
			"target":34962
		},
		{
			"buffer":0,
			"byteLength":48752,
			"byteOffset":16147456,
			"target":34962
		},
		{
			"buffer":0,
			"byteLength":58548,
			"byteOffset":16196208,
			"target":34963
		},
		{
			"buffer":0,
			"byteLength":63564,
			"byteOffset":16254756,
			"target":34962
		},
		{
			"buffer":0,
			"byteLength":63564,
			"byteOffset":16318320,
			"target":34962
		},
		{
			"buffer":0,
			"byteLength":42376,
			"byteOffset":16381884,
			"target":34962
		},
		{
			"buffer":0,
			"byteLength":46044,
			"byteOffset":16424260,
			"target":34963
		}
	],
	"buffers":[
		{
			"byteLength":16470304,
			"uri":"SKeletonNew.bin"
		}
	]
}
